<svg width="211" height="46" viewBox="0 0 211 46" fill="none" xmlns="http://www.w3.org/2000/svg">
<path fill-rule="evenodd" clip-rule="evenodd" d="M10.466 5.46933C11.7269 3.45373 13.3994 1.72687 15.3728 0.40126C17.3209 1.69593 18.9718 3.38998 20.2168 5.36996C23.5037 9.92804 25.1611 15.4583 24.924 21.0729C25.9458 21.897 26.9986 22.6882 28.0036 23.5282C29.4445 24.8126 30.1148 26.7513 29.7764 28.6507C29.2908 30.9916 28.8258 33.3372 28.313 35.6725C27.9727 36.6934 26.8674 37.2456 25.8455 36.9043C25.6674 36.8443 25.4996 36.7599 25.3449 36.6521C23.6958 35.3275 22.089 33.9569 20.4456 32.6312C19.1771 33.819 17.5365 34.5315 15.8031 34.6468C13.8025 34.7443 11.846 34.0394 10.3675 32.6875C9.18631 33.5565 8.0885 34.6009 6.93352 35.5337C6.42728 36.0306 5.86384 36.4646 5.25354 36.8274C4.24949 37.2165 3.11981 36.7187 2.72981 35.7146C2.71106 35.6659 2.69419 35.6171 2.67919 35.5675C2.15138 33.2837 1.5992 31.0075 1.08827 28.721C0.690773 26.7354 1.40702 24.6898 2.95762 23.3867C3.8548 22.6629 4.76323 21.9523 5.67822 21.2492C5.93228 21.1198 5.80478 20.8292 5.81791 20.6051C5.69603 15.192 7.33008 9.88398 10.4744 5.47683M12.0925 12.5455C10.8982 14.0839 11.0416 16.2739 12.4291 17.6426C14.0256 19.2008 16.5569 19.2533 18.2162 17.7617C19.3965 16.6977 19.8024 15.0177 19.2371 13.5318C18.6643 12.1021 17.3359 11.114 15.8012 10.9771C14.3781 10.829 12.9785 11.4205 12.0916 12.5436" fill="white"></path>
<path d="M9.89612 37.4721C9.93456 36.9377 10.3986 36.5355 10.933 36.573C11.0736 36.5833 11.2105 36.6236 11.3342 36.6921C13.8851 37.9258 16.8607 37.9258 19.4126 36.6921C19.887 36.4324 20.4823 36.6068 20.7419 37.0821C20.7991 37.1852 20.8366 37.2977 20.8526 37.4149C20.8601 38.8445 20.8601 40.2742 20.8526 41.7039C20.7991 42.2355 20.3248 42.6236 19.7932 42.5692C19.631 42.5533 19.4763 42.4961 19.3423 42.4042C18.9138 42.0405 18.5276 41.6317 18.116 41.2492C17.4617 42.4726 16.8485 43.7129 16.1904 44.9326C15.8914 45.3836 15.2829 45.5054 14.832 45.2064C14.727 45.1361 14.6361 45.047 14.5648 44.9429C13.9048 43.7204 13.2945 42.4726 12.628 41.2511C12.222 41.6355 11.8348 42.0433 11.4055 42.4061C10.963 42.707 10.3602 42.5917 10.0592 42.1492C9.9683 42.0151 9.91204 41.8595 9.89611 41.6973C9.88486 40.2873 9.89611 38.8764 9.89611 37.4664" fill="white"></path>
<path d="M15.3415 16.877C16.4244 16.9023 17.3215 16.0445 17.3468 14.9626V14.9504C17.329 13.8685 16.4375 13.0051 15.3556 13.022L15.3415 13.0229C14.2597 12.9986 13.3625 13.8564 13.3391 14.9382L13.3381 14.9504C13.3569 16.0332 14.2494 16.8957 15.3312 16.877H15.3415Z" fill="white"></path>
<path fill-rule="evenodd" clip-rule="evenodd" d="M37.325 10.2993H40.4599V31.4772H53.5595V34.3281H37.3193L37.325 10.2993ZM56.3138 25.9947C56.3017 24.7601 56.5632 23.5376 57.0779 22.4154C57.5729 21.3373 58.2769 20.3679 59.1488 19.5636C60.9507 17.8826 63.3366 16.9695 65.8003 17.0183C68.2115 16.9423 70.5562 17.8133 72.3327 19.4445C74.0924 21.0692 75.059 23.3801 74.9802 25.7735C75.0196 28.2082 73.9827 30.5359 72.1462 32.1353C70.3425 33.8115 67.9565 34.7181 65.4947 34.6656C63.0788 34.7537 60.7247 33.8884 58.9398 32.2572C57.196 30.6513 56.236 28.3666 56.3092 25.9966M59.5295 25.8101C59.5219 26.6538 59.6832 27.49 60.0038 28.27C60.3113 29.0013 60.7585 29.666 61.32 30.2256C62.5163 31.3872 64.1344 32.0116 65.8003 31.9553C67.3931 31.9919 68.9297 31.3656 70.0425 30.2256C71.1806 29.1053 71.8012 27.5622 71.7562 25.9657C71.8031 24.296 71.1581 22.6807 69.974 21.5023C68.7872 20.322 67.1662 19.6836 65.4938 19.7379C63.8972 19.7014 62.3588 20.3361 61.2516 21.4873C60.1116 22.6338 59.4919 24.1976 59.5379 25.8147M82.886 27.3241C82.4089 27.8154 82.1201 28.4604 82.0714 29.1438C82.0301 29.6163 82.2523 30.0728 82.6498 30.3325C83.1298 30.6025 83.6492 30.7975 84.1892 30.9109C84.8351 31.0572 85.5654 31.1809 86.3791 31.2831C87.1929 31.3844 88.0301 31.4866 88.8907 31.5878C89.7391 31.7012 90.5707 31.8475 91.3853 32.0294C92.1466 32.1784 92.8863 32.4175 93.5903 32.7419C94.8512 33.2181 95.6922 34.4153 95.7128 35.7624C95.709 37.764 94.7125 39.6334 93.0531 40.7508C91.3675 41.9883 89.3229 42.638 87.2332 42.6005C85.3816 42.6549 83.547 42.2339 81.9045 41.378C80.3408 40.659 79.3395 39.0943 79.3414 37.3731C79.3826 36.1815 79.8261 35.0387 80.6014 34.1322C80.8386 33.8284 81.1001 33.5453 81.3823 33.2837C79.9705 32.9415 78.9627 31.6975 78.9214 30.2453C78.9355 28.4388 79.7567 26.7325 81.1611 25.5963C80.6483 24.8154 80.3764 23.9004 80.3811 22.9667C80.3614 22.0873 80.5658 21.2173 80.9754 20.4382C81.3739 19.7136 81.9242 19.0826 82.5879 18.5886C84.0007 17.5348 85.7257 16.9845 87.4882 17.0276C89.2366 16.9751 90.9503 17.5264 92.3406 18.5886C93.3372 17.7664 94.555 17.2583 95.8403 17.1289C96.279 17.0633 96.7206 17.0295 97.164 17.0276L97.0234 19.6582C95.9481 19.7323 94.8962 20.0023 93.9184 20.4551C94.3019 21.1995 94.4997 22.0263 94.495 22.8645C94.5034 23.6979 94.2934 24.5182 93.8847 25.2448C93.4928 25.9647 92.9481 26.591 92.2891 27.0785C90.9119 28.0994 89.2357 28.6366 87.5219 28.6057C85.8851 28.6507 84.2726 28.2072 82.8889 27.3316M83.7036 21.3776C83.4804 21.8182 83.3689 22.3076 83.3801 22.8017C83.3708 23.3013 83.4814 23.7973 83.7036 24.2454C83.9295 24.6532 84.2426 25.0057 84.6195 25.2794C85.482 25.8532 86.5039 26.1391 87.5389 26.0941C88.9957 26.2535 90.4132 25.5513 91.1698 24.2951C91.3947 23.861 91.5063 23.3763 91.4932 22.887C91.5026 22.3854 91.3863 21.8895 91.1529 21.4451C90.9401 21.0289 90.6326 20.6689 90.2548 20.3932C89.396 19.8092 88.3723 19.5176 87.3354 19.5617C85.8729 19.4051 84.4536 20.1167 83.7036 21.3823M83.7373 33.9034C82.9658 34.7387 82.5458 35.8384 82.5654 36.9756C82.6086 38.0012 83.2751 38.8955 84.2454 39.2312C85.107 39.654 86.051 39.8799 87.011 39.893C87.762 39.9062 88.512 39.8433 89.2507 39.7055C89.8085 39.6034 90.3466 39.414 90.8454 39.1459C91.8372 38.7193 92.4832 37.7481 92.4916 36.669C92.4916 35.6612 91.5185 34.9881 89.5722 34.6487C88.7323 34.5015 87.7085 34.3722 86.501 34.2578C85.2935 34.1443 84.372 34.0253 83.7364 33.9025M121.609 17.7139C121.797 20.996 119.79 24.0063 116.688 25.0966L121.254 34.345H117.601L113.478 25.9779C112.315 26.1513 111.141 26.2366 109.965 26.2329H103.72V34.3431H100.582V10.3152H110.442C113.173 10.1502 115.904 10.6508 118.399 11.774C120.54 12.9524 121.795 15.2755 121.606 17.713M110.389 23.3801C112.326 23.5029 114.262 23.141 116.023 22.3273C117.555 21.4076 118.431 19.6957 118.28 17.9155C118.28 15.223 116.538 13.6949 113.054 13.333C112.022 13.2186 110.985 13.1624 109.949 13.1643H103.72V23.3838L110.389 23.3801ZM125.369 26.0107C125.358 24.7751 125.619 23.5526 126.134 22.4304C126.628 21.3523 127.332 20.3829 128.204 19.5786C130.007 17.8976 132.392 16.9855 134.856 17.0333C137.27 16.9498 139.619 17.8161 141.401 19.4454C143.161 21.071 144.127 23.381 144.049 25.7754C144.088 28.21 143.051 30.5378 141.215 32.1372C139.411 33.8125 137.025 34.72 134.563 34.6665C132.149 34.7537 129.797 33.8884 128.014 32.2572C126.269 30.6513 125.309 28.3666 125.383 25.9966M128.604 25.8101C128.597 26.6538 128.758 27.49 129.08 28.27C129.385 28.9985 129.829 29.6613 130.386 30.2219C131.582 31.3825 133.2 32.0069 134.866 31.9506C136.459 31.9881 137.996 31.3619 139.108 30.2219C140.246 29.1016 140.867 27.5575 140.822 25.961C140.869 24.2913 140.224 22.676 139.04 21.4985C137.853 20.3182 136.232 19.6798 134.56 19.7342C132.963 19.6976 131.424 20.3314 130.317 21.4826C129.177 22.6291 128.558 24.1938 128.604 25.8101M161.286 30.6981L161.879 33.0906C160.018 34.2653 157.832 34.8184 155.635 34.6684C153.325 34.7931 151.073 33.9156 149.458 32.259C147.927 30.4975 147.143 28.2091 147.27 25.8785C147.206 23.5291 148.093 21.2529 149.73 19.5664C151.358 17.8836 153.617 16.9601 155.958 17.0211C157.896 16.933 159.811 17.473 161.418 18.5614L160.297 21.0879C158.947 20.1157 157.312 19.6151 155.647 19.6639C154.173 19.6254 152.768 20.2939 151.868 21.462C150.929 22.6591 150.443 24.1498 150.493 25.6704C150.429 27.2763 150.94 28.8522 151.935 30.115C152.956 31.3441 154.495 32.0228 156.092 31.9478C157.897 31.9366 159.674 31.5053 161.283 30.6878M165.576 7.83087H168.796V24.8173L176.415 17.3511H180.181L172.201 25.1566L176.952 30.281C177.88 31.3066 179.169 31.9328 180.549 32.0294L180.056 34.3197C178.593 34.615 177.074 34.269 175.882 33.37C175.538 33.0822 175.215 32.77 174.915 32.4363L168.79 25.8176V34.3197H165.57L165.576 7.83087ZM196.527 18.8436C197.156 19.4904 197.637 20.2667 197.936 21.117C198.288 22.0329 198.466 23.0051 198.462 23.9857C198.445 25.1754 198.331 26.3613 198.121 27.5322H186.311C186.491 28.7669 187.076 29.9069 187.974 30.7731C188.999 31.6103 190.303 32.0284 191.623 31.9441C193.611 31.9675 195.582 31.5747 197.409 30.79L197.953 33.2162C196.4 34.0047 194.701 34.4612 192.962 34.5578C192.184 34.6337 191.403 34.6675 190.622 34.66C189.588 34.6459 188.566 34.4509 187.601 34.0834C186.606 33.7347 185.71 33.1534 184.988 32.3866C183.5 30.5538 182.767 28.2241 182.936 25.8701C182.872 23.5207 183.759 21.2454 185.396 19.5579C187.023 17.8751 189.283 16.9517 191.623 17.0127C193.439 16.9255 195.211 17.5883 196.523 18.8454M195.386 25.0404L195.454 24.1235C195.651 22.391 194.714 20.7289 193.13 20.0004C192.538 19.7604 191.902 19.6451 191.263 19.6611C190.573 19.6536 189.889 19.797 189.261 20.0811C188.67 20.3586 188.139 20.7514 187.701 21.2361C186.771 22.2907 186.232 23.6323 186.174 25.0376L195.386 25.0404ZM202.888 19.9667H201.067V17.8667L205.243 14.728H206.108V17.3586H210.96V19.9704H206.108V26.831C205.986 28.1847 206.238 29.5469 206.837 30.7675C207.564 31.5766 208.6 32.0397 209.687 32.0416L209.196 34.3318C205.802 34.7612 203.795 33.4206 203.175 30.31C202.978 29.3219 202.881 28.316 202.888 27.3082L202.888 19.9667Z" fill="white"></path>
</svg>
